<svg width="1200" height="680" viewBox="0 0 1200 680" xmlns="http://www.w3.org/2000/svg" font-family="system-ui, -apple-system, sans-serif">
  <defs>
    <linearGradient id="bgGrad" x1="0%" y1="0%" x2="100%" y2="100%">
      <stop offset="0%" style="stop-color:#1a1a2e"/>
      <stop offset="100%" style="stop-color:#16213e"/>
    </linearGradient>
    <filter id="shadow" x="-5%" y="-5%" width="110%" height="110%">
      <feDropShadow dx="0" dy="4" stdDeviation="8" flood-color="rgba(0,0,0,0.3)"/>
    </filter>
  </defs>

  <!-- Background -->
  <rect width="1200" height="680" fill="url(#bgGrad)"/>
  <rect width="1200" height="680" fill="rgba(5,150,105,0.03)"/>

  <!-- Grid dots -->
  <pattern id="dots" x="0" y="0" width="40" height="40" patternUnits="userSpaceOnUse">
    <circle cx="20" cy="20" r="1" fill="rgba(255,255,255,0.04)"/>
  </pattern>
  <rect width="1200" height="680" fill="url(#dots)"/>

  <!-- Main window -->
  <rect x="40" y="40" width="1120" height="600" rx="16" fill="#f5f5f3" filter="url(#shadow)"/>

  <!-- Header bar -->
  <rect x="40" y="40" width="1120" height="52" rx="16" fill="#1a1a2e"/>
  <rect x="40" y="76" width="1120" height="16" fill="#1a1a2e"/>
  <circle cx="76" cy="66" r="7" fill="#ff5f57"/>
  <circle cx="100" cy="66" r="7" fill="#febc2e"/>
  <circle cx="124" cy="66" r="7" fill="#28c840"/>
  <text x="160" y="71" fill="white" font-size="16" font-weight="800" letter-spacing="-0.5">Stat<tspan fill="#34d399">Lab</tspan></text>
  <text x="230" y="71" fill="rgba(255,255,255,0.35)" font-size="11">Statistik Riset, Lab &amp; Keuangan</text>
  <rect x="1020" y="56" width="50" height="22" rx="5" fill="#059669"/>
  <text x="1045" y="71" fill="white" font-size="11" font-weight="600" text-anchor="middle">Analisis</text>
  <rect x="1080" y="56" width="40" height="22" rx="5" fill="#dc2626"/>
  <text x="1100" y="71" fill="white" font-size="11" font-weight="600" text-anchor="middle">Reset</text>

  <!-- Tab bar -->
  <rect x="40" y="92" width="1120" height="36" fill="#16213e"/>
  <rect x="40" y="116" width="1120" height="12" fill="#16213e"/>

  <!-- Tabs -->
  <g font-size="11" font-weight="500">
    <rect x="52" y="99" width="60" height="24" fill="none"/>
    <text x="82" y="115" fill="#34d399" text-anchor="middle">① Input</text>
    <line x1="52" y1="123" x2="112" y2="123" stroke="#34d399" stroke-width="2"/>

    <text x="148" y="115" fill="rgba(255,255,255,0.4)" text-anchor="middle">② Overview</text>
    <text x="220" y="115" fill="rgba(255,255,255,0.4)" text-anchor="middle">③ Deskriptif</text>
    <text x="288" y="115" fill="rgba(255,255,255,0.4)" text-anchor="middle">④ Tren</text>
    <text x="355" y="115" fill="rgba(255,255,255,0.4)" text-anchor="middle">⑤ Normalitas</text>
    <text x="425" y="115" fill="rgba(255,255,255,0.4)" text-anchor="middle">⑥ Korelasi</text>
    <text x="490" y="115" fill="rgba(255,255,255,0.4)" text-anchor="middle">⑦ Regresi</text>
    <text x="550" y="115" fill="rgba(255,255,255,0.4)" text-anchor="middle">⑧ ANOVA</text>
    <text x="625" y="115" fill="rgba(255,255,255,0.4)" text-anchor="middle">⑨ Plot Matrix</text>
    <text x="697" y="115" fill="rgba(255,255,255,0.4)" text-anchor="middle">⑩ Ekspor</text>
  </g>

  <!-- Main content area -->
  <rect x="40" y="128" width="1120" height="512" fill="#f5f5f3"/>

  <!-- Left panel: Upload -->
  <rect x="60" y="148" width="540" height="200" rx="10" fill="white" stroke="#e5e4e0" stroke-width="1"/>
  <text x="80" y="172" fill="#059669" font-size="10" font-weight="700" letter-spacing="1">INPUT DATA</text>
  <!-- Upload box -->
  <rect x="80" y="182" width="240" height="150" rx="8" fill="#fafaf8" stroke="#e5e4e0" stroke-width="1.5" stroke-dasharray="6,3"/>
  <text x="200" y="245" fill="#888" font-size="28" text-anchor="middle">📂</text>
  <text x="200" y="270" fill="#444" font-size="13" font-weight="600" text-anchor="middle">Upload CSV</text>
  <text x="200" y="288" fill="#999" font-size="11" text-anchor="middle">Drag &amp; drop atau klik</text>
  <!-- Sample buttons -->
  <rect x="340" y="200" width="240" height="60" rx="8" fill="#f5f5f3" stroke="#e5e4e0" stroke-width="1"/>
  <text x="355" y="222" fill="#1a1a2e" font-size="13" font-weight="600">📊 Data Keuangan</text>
  <text x="355" y="238" fill="#888" font-size="11">Pengeluaran 12 bulan</text>
  <rect x="355" y="246" width="110" height="8" rx="4" fill="#059669"/>
  <text x="410" y="253" fill="white" font-size="9" text-anchor="middle">Muat Data</text>
  <rect x="340" y="272" width="240" height="60" rx="8" fill="#f5f5f3" stroke="#e5e4e0" stroke-width="1"/>
  <text x="355" y="294" fill="#1a1a2e" font-size="13" font-weight="600">🔬 Data Lab</text>
  <text x="355" y="310" fill="#888" font-size="11">30 run eksperimen</text>
  <rect x="355" y="318" width="110" height="8" rx="4" fill="#e5e4e0"/>
  <text x="410" y="325" fill="#666" font-size="9" text-anchor="middle">Muat Data</text>

  <!-- Preview table card -->
  <rect x="60" y="364" width="540" height="260" rx="10" fill="white" stroke="#e5e4e0" stroke-width="1"/>
  <text x="80" y="388" fill="#059669" font-size="10" font-weight="700" letter-spacing="1">PREVIEW DATA</text>
  <rect x="400" y="376" width="80" height="18" rx="9" fill="#ecfdf5"/>
  <text x="440" y="389" fill="#065f46" font-size="10" font-weight="700" text-anchor="middle">12 obs, 6 var</text>
  <!-- Mini table -->
  <rect x="80" y="398" width="500" height="20" fill="#f5f5f3" rx="3"/>
  <text x="90" y="412" fill="#888" font-size="9" font-weight="700">#</text>
  <text x="140" y="412" fill="#888" font-size="9" font-weight="700">MAKAN</text>
  <text x="230" y="412" fill="#888" font-size="9" font-weight="700">TRANSPORT</text>
  <text x="330" y="412" fill="#888" font-size="9" font-weight="700">HIBURAN</text>
  <text x="420" y="412" fill="#888" font-size="9" font-weight="700">TABUNGAN</text>
  <text x="510" y="412" fill="#888" font-size="9" font-weight="700">TOTAL</text>
  <g font-size="11" font-family="monospace">
    <text x="90" y="432" fill="#666">Jan</text><text x="140" y="432" fill="#059669">850.000</text><text x="230" y="432" fill="#059669">220.000</text><text x="330" y="432" fill="#059669">350.000</text><text x="420" y="432" fill="#059669">500.000</text><text x="510" y="432" fill="#059669" font-weight="600">1.820.000</text>
    <text x="90" y="450" fill="#666">Feb</text><text x="140" y="450" fill="#059669">780.000</text><text x="230" y="450" fill="#059669">195.000</text><text x="330" y="450" fill="#059669">420.000</text><text x="420" y="450" fill="#059669">420.000</text><text x="510" y="450" fill="#059669" font-weight="600">1.815.000</text>
    <text x="90" y="468" fill="#666">Mar</text><text x="140" y="468" fill="#059669">900.000</text><text x="230" y="468" fill="#059669">230.000</text><text x="330" y="468" fill="#059669">280.000</text><text x="420" y="468" fill="#059669">550.000</text><text x="510" y="468" fill="#059669" font-weight="600">1.960.000</text>
    <text x="90" y="486" fill="#aaa">...</text><text x="140" y="486" fill="#aaa">...</text><text x="230" y="486" fill="#aaa">...</text><text x="330" y="486" fill="#aaa">...</text><text x="420" y="486" fill="#aaa">...</text><text x="510" y="486" fill="#aaa">...</text>
    <rect x="80" y="498" width="500" height="22" fill="#ecfdf5" rx="3"/>
    <text x="90" y="513" fill="#065f46" font-weight="700">TOTAL</text><text x="140" y="513" fill="#065f46" font-weight="700">10.500.000</text><text x="230" y="513" fill="#065f46" font-weight="700">2.500.000</text><text x="330" y="513" fill="#065f46" font-weight="700">4.650.000</text><text x="420" y="513" fill="#065f46" font-weight="700">4.130.000</text><text x="510" y="513" fill="#065f46" font-weight="700">21.780.000</text>
  </g>
  <rect x="80" y="530" width="120" height="28" rx="7" fill="#059669"/>
  <text x="140" y="549" fill="white" font-size="12" font-weight="600" text-anchor="middle">Lihat Overview →</text>
  <rect x="212" y="530" width="100" height="28" rx="7" fill="white" stroke="#e5e4e0" stroke-width="1"/>
  <text x="262" y="549" fill="#1a1a2e" font-size="12" font-weight="600" text-anchor="middle">+ Kolom Total</text>

  <!-- Right panel: Stats cards + chart -->
  <rect x="620" y="148" width="520" height="200" rx="10" fill="white" stroke="#e5e4e0" stroke-width="1"/>
  <text x="640" y="172" fill="#059669" font-size="10" font-weight="700" letter-spacing="1">OVERVIEW KEUANGAN</text>

  <!-- 4 stat cards -->
  <rect x="640" y="182" width="110" height="60" rx="8" fill="#f5f5f3"/>
  <text x="650" y="198" fill="#888" font-size="9" letter-spacing="1">TOTAL PENGELUARAN</text>
  <text x="650" y="220" fill="#1a1a2e" font-size="15" font-weight="700" font-family="monospace">Rp 21,7jt</text>

  <rect x="762" y="182" width="110" height="60" rx="8" fill="#f5f5f3"/>
  <text x="772" y="198" fill="#888" font-size="9" letter-spacing="1">RATA-RATA/BULAN</text>
  <text x="772" y="220" fill="#059669" font-size="15" font-weight="700" font-family="monospace">Rp 1,81jt</text>

  <rect x="884" y="182" width="110" height="60" rx="8" fill="#f5f5f3"/>
  <text x="894" y="198" fill="#888" font-size="9" letter-spacing="1">BULAN TERBOROS</text>
  <text x="894" y="220" fill="#dc2626" font-size="15" font-weight="700" font-family="monospace">Desember</text>

  <rect x="1006" y="182" width="114" height="60" rx="8" fill="#f5f5f3"/>
  <text x="1016" y="198" fill="#888" font-size="9" letter-spacing="1">TOTAL TABUNGAN</text>
  <text x="1016" y="220" fill="#059669" font-size="15" font-weight="700" font-family="monospace">Rp 4,13jt</text>

  <!-- Mini line chart -->
  <rect x="640" y="254" width="480" height="74" rx="6" fill="#fafaf8"/>
  <!-- Fake line chart path -->
  <polyline points="660,310 700,305 740,308 780,300 820,303 860,295 900,298 940,292 980,295 1020,288 1060,282 1100,278" fill="none" stroke="#059669" stroke-width="2.5"/>
  <polyline points="660,318 700,316 740,319 780,312 820,315 860,306 900,310 940,303 980,306 1020,297 1060,290 1100,284" fill="none" stroke="#1d4ed8" stroke-width="1.5" stroke-dasharray="4,2"/>
  <text x="660" y="325" fill="#888" font-size="9">Jan</text>
  <text x="770" y="325" fill="#888" font-size="9">Apr</text>
  <text x="878" y="325" fill="#888" font-size="9">Jul</text>
  <text x="990" y="325" fill="#888" font-size="9">Okt</text>
  <text x="1090" y="325" fill="#888" font-size="9">Des</text>

  <!-- Right bottom: Correlation heatmap preview -->
  <rect x="620" y="364" width="250" height="260" rx="10" fill="white" stroke="#e5e4e0" stroke-width="1"/>
  <text x="640" y="388" fill="#059669" font-size="10" font-weight="700" letter-spacing="1">KORELASI PEARSON</text>
  <!-- Heatmap cells -->
  <g>
    <rect x="700" y="400" width="40" height="40" rx="2" fill="#f0fdf4"/><text x="720" y="425" fill="#1a1a2e" font-size="10" text-anchor="middle">1.00</text>
    <rect x="742" y="400" width="40" height="40" rx="2" fill="rgba(29,100,165,0.7)"/><text x="762" y="425" fill="white" font-size="10" text-anchor="middle">0.97</text>
    <rect x="784" y="400" width="40" height="40" rx="2" fill="rgba(220,38,38,0.4)"/><text x="804" y="425" fill="#1a1a2e" font-size="10" text-anchor="middle">-0.31</text>
    <rect x="826" y="400" width="40" height="40" rx="2" fill="rgba(29,100,165,0.4)"/><text x="846" y="425" fill="#1a1a2e" font-size="10" text-anchor="middle">0.41</text>

    <rect x="700" y="444" width="40" height="40" rx="2" fill="rgba(29,100,165,0.7)"/><text x="720" y="469" fill="white" font-size="10" text-anchor="middle">0.97</text>
    <rect x="742" y="444" width="40" height="40" rx="2" fill="#f0fdf4"/><text x="762" y="469" fill="#1a1a2e" font-size="10" text-anchor="middle">1.00</text>
    <rect x="784" y="444" width="40" height="40" rx="2" fill="rgba(220,38,38,0.3)"/><text x="804" y="469" fill="#1a1a2e" font-size="10" text-anchor="middle">-0.28</text>
    <rect x="826" y="444" width="40" height="40" rx="2" fill="rgba(29,100,165,0.3)"/><text x="846" y="469" fill="#1a1a2e" font-size="10" text-anchor="middle">0.35</text>

    <rect x="700" y="488" width="40" height="40" rx="2" fill="rgba(220,38,38,0.4)"/><text x="720" y="513" fill="#1a1a2e" font-size="10" text-anchor="middle">-0.31</text>
    <rect x="742" y="488" width="40" height="40" rx="2" fill="rgba(220,38,38,0.3)"/><text x="762" y="513" fill="#1a1a2e" font-size="10" text-anchor="middle">-0.28</text>
    <rect x="784" y="488" width="40" height="40" rx="2" fill="#f0fdf4"/><text x="804" y="513" fill="#1a1a2e" font-size="10" text-anchor="middle">1.00</text>
    <rect x="826" y="488" width="40" height="40" rx="2" fill="rgba(220,38,38,0.15)"/><text x="846" y="513" fill="#1a1a2e" font-size="10" text-anchor="middle">-0.15</text>

    <rect x="700" y="532" width="40" height="40" rx="2" fill="rgba(29,100,165,0.4)"/><text x="720" y="557" fill="#1a1a2e" font-size="10" text-anchor="middle">0.41</text>
    <rect x="742" y="532" width="40" height="40" rx="2" fill="rgba(29,100,165,0.3)"/><text x="762" y="557" fill="#1a1a2e" font-size="10" text-anchor="middle">0.35</text>
    <rect x="784" y="532" width="40" height="40" rx="2" fill="rgba(220,38,38,0.15)"/><text x="804" y="557" fill="#1a1a2e" font-size="10" text-anchor="middle">-0.15</text>
    <rect x="826" y="532" width="40" height="40" rx="2" fill="#f0fdf4"/><text x="846" y="557" fill="#1a1a2e" font-size="10" text-anchor="middle">1.00</text>
  </g>
  <!-- Row labels -->
  <text x="695" y="425" fill="#555" font-size="9" text-anchor="end">Makan</text>
  <text x="695" y="469" fill="#555" font-size="9" text-anchor="end">Transport</text>
  <text x="695" y="513" fill="#555" font-size="9" text-anchor="end">Hiburan</text>
  <text x="695" y="557" fill="#555" font-size="9" text-anchor="end">Tabungan</text>

  <!-- Right bottom right: Regression plot -->
  <rect x="882" y="364" width="258" height="260" rx="10" fill="white" stroke="#e5e4e0" stroke-width="1"/>
  <text x="902" y="388" fill="#059669" font-size="10" font-weight="700" letter-spacing="1">REGRESI LINEAR</text>
  <!-- Scatter points -->
  <g fill="rgba(5,150,105,0.5)">
    <circle cx="930" cy="540" r="4"/><circle cx="945" cy="530" r="4"/>
    <circle cx="960" cy="520" r="4"/><circle cx="975" cy="512" r="4"/>
    <circle cx="990" cy="510" r="4"/><circle cx="1005" cy="498" r="4"/>
    <circle cx="1020" cy="495" r="4"/><circle cx="1035" cy="480" r="4"/>
    <circle cx="1050" cy="475" r="4"/><circle cx="1065" cy="462" r="4"/>
    <circle cx="1080" cy="458" r="4"/><circle cx="1095" cy="440" r="4"/>
  </g>
  <!-- Regression line -->
  <line x1="925" y1="548" x2="1100" y2="432" stroke="#dc2626" stroke-width="2"/>
  <!-- Stats -->
  <rect x="905" y="556" width="70" height="20" rx="4" fill="#ecfdf5"/>
  <text x="940" y="570" fill="#065f46" font-size="10" text-anchor="middle" font-weight="700">R² = 0.967</text>
  <rect x="983" y="556" width="60" height="20" rx="4" fill="#ecfdf5"/>
  <text x="1013" y="570" fill="#065f46" font-size="10" text-anchor="middle" font-weight="700">p &lt; 0.001</text>

  <!-- Axis labels -->
  <text x="1010" y="600" fill="#888" font-size="10" text-anchor="middle">Suhu (°C)</text>
  <text x="902" y="520" fill="#888" font-size="10" transform="rotate(-90,902,520)">Yield (%)</text>

  <!-- Bottom watermark -->
  <text x="600" y="660" fill="rgba(255,255,255,0.25)" font-size="13" font-weight="600" text-anchor="middle" letter-spacing="2">STATLAB v2.0 — Analisis Statistik Berbasis Web</text>
</svg>
